<?xml version="1.0" encoding="utf-8"?>
<!-- Svg Vector Icons : http://www.onlinewebfonts.com/icon -->
<!DOCTYPE svg PUBLIC "-//W3C//DTD SVG 1.1//EN" "http://www.w3.org/Graphics/SVG/1.1/DTD/svg11.dtd">
<svg version="1.1" xmlns="http://www.w3.org/2000/svg" xmlns:xlink="http://www.w3.org/1999/xlink" x="0px" y="0px" viewBox="0 0 1000 1000" enable-background="new 0 0 1000 1000" xml:space="preserve">
<metadata> Svg Vector Icons : http://www.onlinewebfonts.com/icon </metadata>
<g><g transform="translate(0.000000,512.000000) scale(0.100000,-0.100000)"><path d="M4130.6,4972.1l-47.9-45.9V4484v-442.2l47.9-45.9c40.2-42.1,63.2-47.9,191.4-47.9h143.6v-247v-248.9l-90-11.5c-652.8-91.9-1370.7-402-1920.1-830.8l-124.4-95.7l-103.4,103.4l-103.4,101.5l49.8,61.3c90,105.3,76.6,134-189.5,403.9c-134,134-262.3,248.9-287.2,254.6c-24.9,7.7-70.8,0-99.5-15.3c-28.7-15.3-204.8-181.9-390.5-371.4c-304.4-306.3-340.8-350.3-340.8-407.8c0-55.5,28.7-91.9,245-308.2c271.8-271.8,310.1-291,421.2-199.1l55.5,47.9l97.6-99.5c55.5-55.5,99.6-107.2,99.6-114.9c0-7.7-47.9-78.5-107.2-158.9C640.7,408.2,596.7-1487.1,1565.4-2943.9c838.5-1259.7,2324.1-1964.2,3830.7-1816.8c1298,126.4,2458.1,855.7,3139.6,1971.8C9402.9-1368.4,9320.6,479,8327,1807.6l-122.5,164.6l107.2,107.2l107.2,105.3l53.6-47.9c105.3-90,147.4-72.7,409.7,187.6c130.2,130.2,241.2,254.6,246.9,277.6c5.8,23,5.8,61.3-1.9,86.1c-17.2,53.6-647.1,694.9-721.7,735.1c-28.7,15.3-74.6,23-99.6,15.3c-24.9-5.7-153.2-120.6-287.2-254.6c-266.1-269.9-279.5-298.6-189.5-403.9l49.8-61.3l-103.4-101.5l-103.4-103.4l-124.4,95.7c-518.8,405.8-1127.6,679.6-1784.2,806l-225.9,44v243.1v245h143.6c128.3,0,151.2,5.7,191.4,47.9l47.9,45.9V4484v442.2l-47.9,45.9l-45.9,47.9h-825.1h-825.1L4130.6,4972.1z M4848.5,2464.3c0-250.8,1.9-262.3,47.9-306.3c28.7-30.6,68.9-47.9,105.3-47.9c36.4,0,76.6,17.2,105.3,47.9c45.9,44,47.9,55.5,47.9,306.3v260.4l111-11.5c463.3-49.8,853.8-155.1,1167.8-314l114.9-57.4L6426,2125.4c-67-116.8-122.5-233.6-122.5-256.5c0-23,17.2-63.2,40.2-91.9c30.6-38.3,55.5-49.8,112.9-49.8c86.2,0,109.1,24.9,258.4,287.2c51.7,90,95.7,166.6,97.6,170.4c19.1,23,359.9-254.6,562.8-457.5c202.9-202.9,480.5-543.7,457.5-562.8c-3.8-1.9-80.4-45.9-170.4-97.6c-262.3-149.3-287.2-172.3-287.2-258.4c0-57.4,11.5-82.3,49.8-112.9c28.7-23,68.9-40.2,91.9-40.2c23,0,137.8,55.5,256.5,122.5l214.4,124.4l49.8-97.6c160.8-317.8,275.7-735.1,323.5-1186.9l11.5-111h-260.4c-250.8,0-262.3-1.9-306.3-47.9c-63.2-61.3-63.2-149.3,0-210.6c44-45.9,55.5-47.9,306.3-47.9H8371l-11.5-109.1c-42.1-440.3-157-865.3-321.6-1186.9l-47.9-97.6l-216.3,122.5c-116.8,67-233.6,122.5-256.5,122.5c-23,0-63.2-17.2-91.9-40.2c-38.3-30.6-49.8-55.5-49.8-112.9c0-86.2,24.9-109.1,287.2-258.4c90-51.7,166.6-95.7,170.4-97.6c22.9-19.1-254.6-359.9-457.5-562.8c-202.9-202.9-543.7-480.5-562.8-457.5c-1.9,3.8-45.9,80.4-97.6,170.4c-149.3,262.3-172.3,287.2-258.4,287.2c-57.4,0-82.3-11.5-112.9-49.8c-23-28.7-40.2-68.9-40.2-91.9c0-23,55.5-139.7,122.5-256.5l122.5-216.3l-97.6-47.9c-321.6-164.7-746.6-279.5-1185-321.6l-111-11.5v258.4c0,250.8-1.9,262.3-47.9,306.3c-61.3,63.2-149.3,63.2-210.6,0c-45.9-44-47.9-55.5-47.9-306.3v-260.4l-109.1,11.5c-453.7,47.9-871.1,162.7-1188.8,323.5l-97.6,49.8l124.4,214.4c67,118.7,122.5,233.6,122.5,256.5c0,23-17.2,63.2-40.2,91.9c-30.6,38.3-55.5,49.8-112.9,49.8c-88.1,0-114.9-28.7-258.4-287.2c-51.7-90-95.7-166.6-97.6-170.4c-19.1-22.9-359.9,254.6-562.8,457.5c-202.9,202.9-480.5,543.7-457.5,562.8c3.8,1.9,80.4,45.9,170.4,97.6c262.3,149.3,287.2,172.3,287.2,258.4c0,57.4-11.5,82.3-49.8,112.9c-28.7,23-68.9,40.2-91.9,40.2c-23,0-139.8-55.5-256.5-122.5l-216.3-122.5l-47.9,97.6c-164.6,325.4-273.8,719.8-323.5,1186.9l-11.5,109.1h260.4c250.8,0,262.3,1.9,306.3,47.9c63.2,61.3,63.2,149.3,0,210.6c-44,45.9-55.5,47.9-306.3,47.9h-260.4l11.5,111c49.8,455.6,160.8,865.3,323.5,1186.9l49.8,97.6l214.4-124.4c118.7-67,233.5-122.5,256.5-122.5c23,0,63.2,17.2,91.9,40.2c38.3,30.6,49.8,55.5,49.8,112.9c0,88.1-28.7,112.9-291,260.4c-91.9,51.7-168.5,97.6-168.5,103.4c-1.9,38.3,336.9,446,501.6,603c176.1,170.4,505.4,428.8,520.7,409.7c1.9-3.8,45.9-80.4,97.6-170.4c149.3-262.3,172.3-287.2,258.4-287.2c57.4,0,82.3,11.5,112.9,49.8c23,28.7,40.2,68.9,40.2,91.9c0,23-55.5,139.8-122.5,258.4l-124.4,216.3l157,72.7c296.7,139.7,683.4,248.9,1008.9,285.2C4877.3,2730.4,4848.5,2761,4848.5,2464.3z"/><path d="M5761.7,1187.4c-132.1-187.6-273.8-411.6-545.6-869.1l-250.8-423.1l-118.7-32.5c-216.3-59.3-381-279.5-381-509.2c0-287.1,248.9-536,536-536c225.9,0,448,162.7,509.2,373.3c40.2,139.7,26.8,285.2-36.4,407.8l-46,90l46,143.6c222.1,706.4,407.8,1365,407.8,1443.5C5882.3,1332.9,5845.9,1306.1,5761.7,1187.4z"/></g></g>
</svg>